<?xml version="1.0" encoding="iso-8859-1"?>
<!-- Uploaded to: SVG Repo, www.svgrepo.com, Generator: SVG Repo Mixer Tools -->
<svg version="1.1" id="Layer_1" xmlns="http://www.w3.org/2000/svg" xmlns:xlink="http://www.w3.org/1999/xlink" 
	 viewBox="0 0 512 512" xml:space="preserve">
<path style="fill:#FFCD54;" d="M0,256.006C0,397.402,114.606,512.004,255.996,512C397.394,512.004,512,397.402,512,256.006
	C512.009,114.61,397.394,0,255.996,0C114.606,0,0,114.614,0,256.006z"/>
<path style="fill:#F4BA41;" d="M512,256.005c0.001-12.359-0.926-24.497-2.618-36.388c-0.391-0.429-129.597-129.67-130.14-130.14
	c-2.74-3.165-6.737-5.211-11.243-5.211H144c-8.236,0-14.933,6.698-14.933,14.933v328.533h1.517v1.517l78.863,77.346v1.105
	c15.103,2.775,30.644,4.3,46.55,4.299C397.394,512.004,512,397.401,512,256.005z"/>
<g>
	<path style="fill:#F4F6F9;" d="M368,84.267H144c-8.236,0-14.933,6.698-14.933,14.933v328.533H144v-44.8h224v44.8h14.933V99.2
		C382.933,90.964,376.236,84.267,368,84.267z M144,233.6h104.533v104.533H144V233.6z M368,368H144v-14.933h224V368z M368,338.133
		H263.467V233.6H368V338.133z M144,218.667V99.2h224v119.467H144z"/>
	
		<rect x="227.464" y="172.973" transform="matrix(-0.3164 0.9486 -0.9486 -0.3164 511.5145 -7.7259)" style="fill:#F4F6F9;" width="62.153" height="14.933"/>
	<rect x="285.867" y="151.467" style="fill:#F4F6F9;" width="14.933" height="59.733"/>
	<rect x="323.2" y="151.467" style="fill:#F4F6F9;" width="14.933" height="59.733"/>
</g>
</svg>