<?xml version="1.0" encoding="iso-8859-1"?>
<!-- Uploaded to: SVG Repo, www.svgrepo.com, Generator: SVG Repo Mixer Tools -->
<svg height="800px" width="800px" version="1.1" id="Layer_1" xmlns="http://www.w3.org/2000/svg" xmlns:xlink="http://www.w3.org/1999/xlink" 
	 viewBox="0 0 512 512" xml:space="preserve">
<path style="fill:#FF6464;" d="M423.231,471.606l-77.852-226.499H166.621L88.769,471.606c-2.292,6.668,3.773,13.199,10.592,11.407
	l45.614-11.985l28.606,37.495c4.277,5.606,13.075,4.183,15.367-2.485L256,310.959l67.052,195.08
	c2.292,6.667,11.09,8.091,15.367,2.485l28.606-37.495l45.614,11.985C419.458,484.804,425.523,478.274,423.231,471.606z"/>
<path style="fill:#D2555A;" d="M374.645,330.253l-29.266-85.146H166.621l-29.266,85.146c27.811,21.5,61.586,35.651,98.451,39.46
	L256,310.959l20.194,58.753C313.059,365.903,346.834,351.752,374.645,330.253z"/>
<circle style="fill:#FFC36E;" cx="256" cy="176.552" r="176.552"/>
<path style="fill:#FFD782;" d="M256,0C158.493,0,79.448,79.044,79.448,176.552c0,97.506,79.044,176.552,176.552,176.552
	s176.552-79.046,176.552-176.552C432.552,79.044,353.507,0,256,0z M256,326.621c-82.881,0-150.069-67.188-150.069-150.069
	S173.119,26.483,256,26.483s150.069,67.188,150.069,150.069S338.881,326.621,256,326.621z"/>
<path style="fill:#EBB45F;" d="M256,26.483c-82.881,0-150.069,67.188-150.069,150.069S173.119,326.621,256,326.621
	s150.069-67.188,150.069-150.069S338.881,26.483,256,26.483z M256,308.966c-73.13,0-132.414-59.284-132.414-132.414
	S182.87,44.138,256,44.138s132.414,59.284,132.414,132.414S329.13,308.966,256,308.966z"/>
<path style="fill:#FFD782;" d="M256.605,231.962L213.07,254.85c-7.207,3.789-15.629-2.33-14.253-10.356l8.314-48.477l-35.221-34.332
	c-5.831-5.683-2.613-15.585,5.444-16.756l48.673-7.073l21.768-44.106c3.604-7.302,14.015-7.302,17.618,0l21.768,44.106l48.673,7.073
	c8.057,1.171,11.275,11.073,5.444,16.756l-35.221,34.332l8.314,48.477c1.376,8.025-7.047,14.144-14.253,10.356L256.605,231.962z"/>
<path style="fill:#EBB45F;" d="M256.605,88.276c3.503,0,7.007,1.825,8.809,5.476l21.768,44.106l48.673,7.073
	c8.057,1.171,11.275,11.073,5.444,16.756l-35.22,34.332l8.314,48.477c1.089,6.349-3.957,11.506-9.681,11.506
	c-1.511,0-3.069-0.359-4.573-1.15l-43.534-22.888l-43.534,22.888c-1.504,0.791-3.063,1.15-4.573,1.15
	c-5.725,0-10.77-5.156-9.681-11.506l8.314-48.477l-35.22-34.332c-5.831-5.683-2.613-15.585,5.444-16.756l48.673-7.073l21.768-44.106
	C249.597,90.101,253.101,88.276,256.605,88.276 M256.605,70.621c-10.536,0-19.978,5.869-24.641,15.318l-17.66,35.783l-39.488,5.738
	c-10.426,1.515-18.926,8.681-22.183,18.701c-3.256,10.02-0.591,20.814,6.954,28.169l28.574,27.852l-6.745,39.329
	c-1.374,8.008,0.828,16.143,6.037,22.324c5.262,6.242,12.934,9.822,21.045,9.822c4.412,0,8.834-1.099,12.789-3.178l35.319-18.569
	l35.319,18.569c3.955,2.079,8.377,3.178,12.789,3.178c8.111,0,15.782-3.581,21.045-9.823c5.209-6.179,7.411-14.316,6.037-22.323
	l-6.745-39.329l28.574-27.852c7.545-7.354,10.209-18.148,6.954-28.169c-3.256-10.02-11.756-17.186-22.183-18.701l-39.488-5.738
	l-17.66-35.783C276.583,76.49,267.14,70.621,256.605,70.621L256.605,70.621z"/>
<path style="fill:#FFE6A0;" d="M335.854,144.93l-48.673-7.073l-21.768-44.106c-3.604-7.302-14.015-7.302-17.618,0l-13.976,28.32
	l77.308,131.423c2.421-2.108,3.896-5.325,3.266-9l-8.314-48.477l35.22-34.332C347.128,156.002,343.912,146.101,335.854,144.93z"/>
<g>
	<path style="fill:#FFFFFF;" d="M361.07,84.531c-15.236-3.474-27.231-15.468-30.705-30.706c-0.262-1.148-1.781-1.148-2.042,0
		c-3.474,15.236-15.468,27.231-30.705,30.706c-1.148,0.262-1.148,1.781,0,2.042c15.236,3.474,27.231,15.467,30.705,30.705
		c0.262,1.148,1.781,1.148,2.042,0c3.474-15.238,15.468-27.231,30.705-30.705C362.218,86.312,362.218,84.792,361.07,84.531z"/>
	<path style="fill:#FFFFFF;" d="M308.267,134.438c-9.274-2.402-16.577-9.705-18.979-18.979c-0.242-0.931-1.447-0.931-1.688,0
		c-2.402,9.274-9.705,16.577-18.979,18.979c-0.931,0.242-0.931,1.447,0,1.688c9.274,2.402,16.577,9.704,18.979,18.979
		c0.242,0.931,1.447,0.931,1.688,0c2.402-9.276,9.705-16.577,18.979-18.979C309.198,135.884,309.198,134.678,308.267,134.438z"/>
</g>
</svg>